<svg width="636" height="224" viewBox="0 0 636 224" fill="none" xmlns="http://www.w3.org/2000/svg">
<path d="M11.0579 211.486C4.12823 204.378 4.12823 192.756 11.0579 185.661L150.635 42.489C157.565 35.3809 168.894 35.3809 175.812 42.489C182.742 49.5972 182.742 61.2187 175.812 68.3145L36.247 211.486C29.3173 218.594 17.9876 218.594 11.0699 211.486H11.0579Z" fill="#6667AB"/>
<path d="M197.68 36.5246C207.513 36.5246 215.484 28.3483 215.484 18.2623C215.484 8.17631 207.513 0 197.68 0C187.848 0 179.876 8.17631 179.876 18.2623C179.876 28.3483 187.848 36.5246 197.68 36.5246Z" fill="#858CCC"/>
<path d="M8.23172 42.628L10.97 39.8192C15.514 35.1582 22.8895 35.1582 27.4334 39.8192L74.84 88.4466C79.384 93.1076 79.384 100.673 74.84 105.334L72.1018 108.143C67.5578 112.804 60.1823 112.804 55.6383 108.143L8.23173 59.5154C3.68775 54.8544 3.68774 47.289 8.23172 42.628V42.628Z" fill="#3C1874"/>
<path d="M114.46 146.534L111.713 149.352C107.167 154.015 107.167 161.576 111.713 166.239L159.128 214.875C163.675 219.538 171.046 219.538 175.592 214.875L178.339 212.058C182.885 207.394 182.885 199.834 178.339 195.17L130.924 146.534C126.377 141.871 119.006 141.871 114.46 146.534Z" fill="#3C1874"/>
<path d="M172.108 47.5312C171.424 46.4736 170.021 46.2276 169.062 46.9778C168.235 47.6295 168.067 49.0684 168.643 49.9661C171.22 53.9875 170.789 59.4478 167.348 62.9896L143.537 87.4131C142.722 88.2493 142.722 89.6144 143.537 90.4506C144.353 91.2869 145.684 91.2869 146.499 90.4506L170.309 66.0271C175.201 61.0096 175.8 53.2374 172.095 47.5435L172.108 47.5312Z" fill="white"/>
<path d="M137.773 93.3084L101.582 130.431C100.763 131.272 100.763 132.634 101.582 133.475C102.401 134.315 103.73 134.315 104.549 133.475L140.74 96.352C141.559 95.5115 141.559 94.1489 140.74 93.3084C139.921 92.468 138.592 92.468 137.773 93.3084Z" fill="white"/>
<path d="M164.458 45.2069C165.617 45.2069 166.557 44.2433 166.557 43.0548C166.557 41.8662 165.617 40.9026 164.458 40.9026C163.3 40.9026 162.36 41.8662 162.36 43.0548C162.36 44.2433 163.3 45.2069 164.458 45.2069Z" fill="white"/>
<path d="M203.615 7.90752C204.774 7.90752 205.713 6.94398 205.713 5.75539C205.713 4.56681 204.774 3.60327 203.615 3.60327C202.456 3.60327 201.517 4.56681 201.517 5.75539C201.517 6.94398 202.456 7.90752 203.615 7.90752Z" fill="white"/>
<path d="M210.269 10.7483C209.585 9.6907 208.183 9.44474 207.224 10.1949C206.396 10.8467 206.228 12.2855 206.804 13.1833C208.602 15.9995 208.914 19.5044 207.763 22.5665C207.463 23.3659 207.643 24.2513 208.231 24.8539C209.31 25.9607 211.156 25.5672 211.695 24.1161C213.326 19.7503 212.846 14.7451 210.257 10.7606L210.269 10.7483Z" fill="white"/>
<path d="M266.877 121.28L289.976 87.3784C290.799 86.042 291.21 84.5181 291.21 82.83C291.21 80.6731 290.552 78.8209 289.235 77.3204C287.919 75.7965 286.294 75.0228 284.402 75.0228C282.386 75.0228 280.72 75.8199 279.486 77.3907L258.156 108.549L236.847 77.4142C235.634 75.8199 233.988 75.0228 231.911 75.0228C230.019 75.0228 228.394 75.7965 227.057 77.3204C225.72 78.8443 225.041 80.6965 225.041 82.8535C225.041 84.5415 225.453 86.0889 226.316 87.4956L249.415 121.327L226.481 154.854C225.494 156.26 225 157.925 225 159.777C225 161.934 225.679 163.786 227.016 165.287C228.353 166.787 229.978 167.538 231.87 167.538C233.762 167.538 235.387 166.764 236.724 165.24L258.156 134.011L279.075 164.677C280.37 166.529 282.222 167.514 284.443 167.514C286.335 167.514 287.96 166.764 289.277 165.263C290.593 163.763 291.251 161.911 291.251 159.754C291.251 157.925 290.778 156.284 289.811 154.854L266.857 121.257L266.877 121.28Z" fill="#3C1874"/>
<path d="M339.957 80.1814C338.723 76.7819 336.481 75 333.478 75C331.442 75 328.665 75.891 326.979 80.2283L301.042 156.308C300.61 157.433 300.384 158.582 300.384 159.731C300.384 161.888 301.042 163.74 302.358 165.241C303.675 166.765 305.299 167.538 307.192 167.538C309.084 167.538 310.709 166.765 312.046 165.241C312.704 164.49 313.218 163.646 313.589 162.685L322.207 137.599H344.77L353.368 162.755C353.718 163.646 354.232 164.467 354.87 165.194C356.165 166.718 357.79 167.515 359.703 167.515C361.616 167.515 363.22 166.741 364.557 165.217C365.894 163.693 366.573 161.841 366.573 159.684C366.573 158.582 366.409 157.551 366.059 156.589L339.999 80.1345L339.957 80.1814ZM339.443 121.984H327.513L333.478 104.447L339.443 121.984Z" fill="#3C1874"/>
<path d="M463.101 77.2742C462.464 76.5474 461.723 76.0082 460.9 75.6096C460.057 75.211 459.173 75.0235 458.226 75.0235C456.519 75.0235 454.072 75.7268 452.22 79.0795L424.494 142.194L396.809 79.1498C395.472 76.4302 393.374 75 390.741 75C389.774 75 388.869 75.211 388.026 75.5861C387.203 75.9847 386.483 76.5474 385.846 77.2508C385.229 77.9776 384.735 78.8216 384.385 79.7829C384.036 80.7441 383.871 81.7523 383.871 82.8307V159.731C383.871 161.888 384.55 163.74 385.887 165.264C387.224 166.788 388.849 167.562 390.741 167.562C392.633 167.562 394.258 166.788 395.595 165.264C396.932 163.74 397.611 161.888 397.611 159.731V115.982L418.241 162.896C419.537 165.944 421.697 167.538 424.494 167.538C427.065 167.538 429.122 166.178 430.5 163.529L451.377 115.982V159.708C451.377 161.865 452.056 163.717 453.393 165.241C454.73 166.765 456.355 167.538 458.247 167.538C460.139 167.538 461.764 166.765 463.101 165.241C464.438 163.717 465.117 161.865 465.117 159.708V82.8073C465.117 81.7522 464.952 80.7207 464.603 79.7594C464.253 78.7982 463.759 77.9541 463.142 77.2273L463.101 77.2742Z" fill="#3C1874"/>
<path d="M538.012 77.4383C536.119 77.4383 534.494 78.212 533.157 79.736C531.82 81.2599 531.142 83.1121 531.142 85.269V136.52C531.142 138.982 530.73 141.303 529.928 143.413C529.105 145.57 527.974 147.469 526.555 149.11C525.136 150.728 523.47 152.041 521.577 152.955C517.813 154.807 513.185 154.807 509.421 152.955C507.529 152.018 505.842 150.705 504.464 149.11C503.066 147.493 501.934 145.594 501.132 143.413C500.33 141.28 499.919 138.959 499.919 136.544V85.2925C499.919 83.1355 499.24 81.2834 497.903 79.7594C496.566 78.2355 494.941 77.4618 493.049 77.4618C491.157 77.4618 489.532 78.2355 488.195 79.7594C486.858 81.2834 486.179 83.1355 486.179 85.2925V136.544C486.179 145.711 489.079 153.682 494.797 160.176C500.453 166.694 507.426 170 515.51 170C518.184 170 520.796 169.601 523.285 168.781C525.773 167.984 528.118 166.835 530.298 165.381C532.479 163.928 534.474 162.146 536.243 160.13C538.032 158.09 539.575 155.816 540.829 153.33C542.105 150.845 543.092 148.173 543.791 145.383C544.491 142.569 544.861 139.592 544.861 136.544V85.2925C544.861 83.1355 544.182 81.2834 542.845 79.7594C541.508 78.2355 539.883 77.4618 537.991 77.4618L538.012 77.4383Z" fill="#3C1874"/>
<path d="M633.984 77.2977C632.647 75.7737 631.022 75 629.13 75C627.238 75 625.613 75.7737 624.276 77.2977C622.939 78.8216 622.26 80.6738 622.26 82.8307V136.989L581.967 77.9072L581.884 77.8135C580.424 75.9613 578.655 75 576.619 75C575.652 75 574.747 75.211 573.904 75.5861C573.081 75.9847 572.361 76.5474 571.723 77.2508C571.106 77.9776 570.613 78.8216 570.263 79.7829C569.913 80.7441 569.749 81.7523 569.749 82.8307V159.731C569.749 161.888 570.428 163.74 571.765 165.264C573.102 166.788 574.726 167.562 576.619 167.562C578.511 167.562 580.136 166.788 581.473 165.264C582.81 163.74 583.489 161.888 583.489 159.731V105.666L623.844 164.748L623.926 164.865C625.366 166.647 627.114 167.538 629.13 167.538C630.056 167.538 630.961 167.351 631.804 166.952C632.647 166.554 633.388 165.991 634.025 165.288C634.643 164.584 635.136 163.74 635.486 162.802C635.836 161.865 636 160.833 636 159.731V82.8307C636 80.6738 635.321 78.8216 633.984 77.2977V77.2977Z" fill="#3C1874"/>
</svg>
